<?xml version="1.0" encoding="utf-8"?>
<!-- Generator: Adobe Illustrator 23.0.3, SVG Export Plug-In . SVG Version: 6.00 Build 0)  -->
<svg version="1.1" id="Layer_1" xmlns="http://www.w3.org/2000/svg" xmlns:xlink="http://www.w3.org/1999/xlink" x="0px" y="0px"
	 viewBox="0 0 244.9 250" style="enable-background:new 0 0 244.9 250;" xml:space="preserve">
<style type="text/css">
	.st0{fill:#B5B5B6;}
</style>
<path class="st0" d="M122.5,140.2c38.7,0,70.1-31.4,70.1-70.1S161.2,0,122.5,0S52.4,31.4,52.4,70.1S83.8,140.2,122.5,140.2z
	 M122.5,18.1c28.7,0,52,23.3,52,52s-23.3,52-52,52s-52-23.3-52-52S93.8,18.1,122.5,18.1z M226.3,173.6
	c-12.8-19.2-30.2-29.8-48.9-29.8H67.6c-18.8,0-36.2,10.6-48.9,29.8C6.6,191.6-0.1,215.5-0.1,241v9h245v-9
	C245,215.6,238.3,191.7,226.3,173.6z M67.6,161.9h109.8c25,0,46.3,30.5,49.2,70H18.4C21.3,192.4,42.6,161.9,67.6,161.9z"/>
</svg>
