<?xml version="1.0" encoding="utf-8"?>
<!-- Generator: Adobe Illustrator 25.0.1, SVG Export Plug-In . SVG Version: 6.00 Build 0)  -->
<svg version="1.1" id="Layer_1" xmlns="http://www.w3.org/2000/svg" xmlns:xlink="http://www.w3.org/1999/xlink" x="0px" y="0px"
	 viewBox="0 0 243.9 202.2" style="enable-background:new 0 0 243.9 202.2;" xml:space="preserve">
<style type="text/css">
	.st0{fill:#B5B5B6;}
</style>
<g>
	<path class="st0" d="M64.8,67.6c-1.3,0-2.4,1.1-2.4,2.4v3.3c0,1.3,1.1,2.4,2.4,2.4h35.1c1.3,0,2.4-1.1,2.4-2.4V70
		c-0.1-1.3-1.1-2.4-2.4-2.4H64.8z"/>
	<path class="st0" d="M131.8,43.4L126.5,20c-0.6-2.9-3.1-4.9-5.8-4.9H44.1c-2.9,0-5.2,2-5.8,4.8l-5.6,23.5c-0.2,1.2,0.6,2.4,1.9,2.4
		h95.5C131.1,45.7,132.1,44.6,131.8,43.4z"/>
	<path class="st0" d="M40.4,50.3c-3.1-0.6-5.8,1.7-5.8,4.8V58c0,2.6,2.1,4.9,4.9,4.9h13.4c2.6,0,4.9-2.1,4.9-4.9
		c0-2.3-1.7-4.3-3.8-4.8L40.4,50.3z"/>
	<g>
		<path class="st0" d="M164.2,58.2c-38.8,0-70.3,31.5-70.3,70.3s31.5,70.3,70.3,70.3s70.3-31.5,70.3-70.3S202.9,58.2,164.2,58.2z
			 M164.2,189.7c-33.8,0-61.2-27.5-61.2-61.2s27.5-61.2,61.2-61.2s61.2,27.5,61.2,61.2S197.9,189.7,164.2,189.7z"/>
		<path class="st0" d="M111.7,62.7h13.4c2.6,0,4.9-2.1,4.9-4.9V55c0-3.1-2.9-5.3-5.8-4.8l-13.3,2.9c-2.3,0.5-3.8,2.5-3.8,4.8
			C106.9,60.6,109.1,62.7,111.7,62.7z"/>
		<path class="st0" d="M109.1,80.1H39.5h-8.8c-2.4,0-4.2-1.9-4.2-4.2V49.4c0-0.4,0.1-0.7,0.1-1.1L35.8,15c0.5-1.8,2.1-3.1,4-3.1
			h84.9c1.9,0,3.6,1.3,4,3.1l4.5,16.5c0,0.1,0.1,0.2,0.1,0.4l2.6,9.9l1.8,6.7c0.1,0.4,0.1,0.7,0.1,1.1V60c2-0.7,4-1.4,6.1-2v-9.5
			c0-0.2,0-0.6-0.1-0.8l-1.1-3.8h9.3c1.7,0,3-1.4,3-3v-9.7c-0.1-1.7-1.4-3-3.1-3h-13.6l-5.3-20c-0.4-1.3-1.5-2.1-2.9-2.1H35.3
			c-1.9,0-3.6,1.3-4,3.1l-5.1,19H12.5c-1.7,0-3,1.4-3,3V41c0,1.7,1.4,3,3,3h9.3l-1,3.6c-0.1,0.4-0.1,0.7-0.1,1.1v33
			c0,0.2,0,0.4,0.1,0.6c0,0.1-0.1,0.4-0.1,0.6V100c0,1.7,1.4,3,3,3h15.8c1.7,0,3-1.4,3-3V85.8h62.1C105.9,84,107.5,82,109.1,80.1z
			 M149.1,34.2V38h-7.8l-1.1-3.8H149.1z M23.4,38h-7.8l-0.1-3.8h9L23.4,38z M36.5,97.2h-9.9V85.9h9.9C36.5,85.9,36.5,97.2,36.5,97.2
			z"/>
		<path class="st0" d="M195.6,123.2l-47.3-27.3c-3.9-2.3-8.9,0.6-8.9,5.1v54.7c0,4.5,5,7.5,8.9,5.1l47.3-27.3
			C199.5,131.3,199.5,125.6,195.6,123.2z"/>
		<path class="st0" d="M134,101.1c0-1.4,0.2-2.7,0.7-3.9H128V85.9h9.9v6.7c0.5-0.5,1.1-0.8,1.7-1.2c1.4-0.8,2.9-1.3,4.3-1.4V83
			c0-0.1,0-0.4-0.1-0.6c0-0.2,0.1-0.4,0.1-0.6V74c-2.1,0.8-4.2,1.7-6.1,2.7c-0.4,2-2,3.4-4.2,3.4h-1.9c-3.6,2.4-6.8,5.1-9.7,8.2
			v11.9c0,1.7,1.4,3,3,3h8.8v-2.1H134z"/>
	</g>
</g>
</svg>
