<?xml version="1.0" encoding="utf-8"?>
<!-- Generator: Adobe Illustrator 25.0.1, SVG Export Plug-In . SVG Version: 6.00 Build 0)  -->
<svg version="1.1" id="Layer_1" xmlns="http://www.w3.org/2000/svg" xmlns:xlink="http://www.w3.org/1999/xlink" x="0px" y="0px"
	 viewBox="0 0 274.5 250" style="enable-background:new 0 0 274.5 250;" xml:space="preserve">
<style type="text/css">
	.st0{fill:#B5B5B6;}
</style>
<g>
	<path class="st0" d="M221.9,246.6H52.6c-3.6,0-6.5-2.9-6.5-6.5V125c0-3.6,2.9-6.5,6.5-6.5s6.5,2.9,6.5,6.5v108.6h156.3V125
		c0-3.6,2.9-6.5,6.5-6.5s6.5,2.9,6.5,6.5v115.1C228.4,243.7,225.5,246.6,221.9,246.6z"/>
</g>
<g>
	<path class="st0" d="M169,246.6h-63.4c-3.6,0-6.5-2.9-6.5-6.5v-93.2c0-3.6,2.9-6.5,6.5-6.5H169c3.6,0,6.5,2.9,6.5,6.5v93.2
		C175.5,243.7,172.6,246.6,169,246.6z M112,233.6h50.4v-80.2H112V233.6z"/>
</g>
<path class="st0" d="M260.9,114.5L148,11.1c-6.1-5.6-15.4-5.6-21.6,0L13.6,114.5c-4.9,4.5-6.5,11.4-4.1,17.6
	c2.4,6.2,8.2,10.2,14.9,10.2h12.7v-13H24.3c-1.8,0-2.5-1.2-2.8-1.9c-0.3-0.7-0.5-2.1,0.8-3.3L135.2,20.7c1.1-1,2.9-1,4,0
	l112.9,103.4c1.3,1.2,1,2.6,0.8,3.3c-0.3,0.7-1,1.9-2.8,1.9h-12.7v13h12.7c6.6,0,12.5-4,14.9-10.2S265.8,119,260.9,114.5z"/>
</svg>
