<?xml version="1.0" encoding="utf-8"?>
<!-- Generator: Adobe Illustrator 23.0.3, SVG Export Plug-In . SVG Version: 6.00 Build 0)  -->
<svg version="1.1" id="Layer_1" xmlns="http://www.w3.org/2000/svg" xmlns:xlink="http://www.w3.org/1999/xlink" x="0px" y="0px"
	 viewBox="0 0 250 169.1" style="enable-background:new 0 0 250 169.1;" xml:space="preserve">
<style type="text/css">
	.st0{fill:#B5B5B6;}
</style>
<path class="st0" d="M211.7,95.2l-16.6,3.5c-2.8,0.6-4.8,3.1-4.8,5.9c0,3.3,2.7,6,6,6H213c3.3,0,6-2.7,6-6v-3.5
	C219,97.2,215.4,94.4,211.7,95.2z M221.2,85.3l-6.7-29.1c-0.8-3.5-3.8-6-7.3-6h-38.7c1.1,4.7,1.7,9.6,1.7,14.6
	c0,8.3-1.6,16.1-4.4,23.4H219C220.4,88.2,221.5,86.8,221.2,85.3z M124.2,98.7l-16.6-3.5c-3.8-0.8-7.3,2.1-7.3,5.9v3.5
	c0,3.3,2.7,6,6,6h6.6c5.8-0.9,11.2-2.9,16.1-5.8c0-0.1,0-0.1,0-0.2C129,101.8,127,99.3,124.2,98.7z M104.9,56.1l-6.8,29.2
	c-0.3,1.5,0.8,2.9,2.3,2.9h45.2c4.1-6.9,6.4-14.9,6.4-23.5c0-5.1-0.8-9.9-2.3-14.5h-37.5C108.7,50.2,105.7,52.7,104.9,56.1z
	 M246.3,67.7h-16.8l-6.7-24.8c-0.4-1.6-1.9-2.7-3.6-2.7h-53.8c1,2.4,1.8,4.9,2.5,7.4h44.5c2.3,0,4.4,1.6,5,3.8L223,72
	c0,0.1,0.1,0.3,0.1,0.4l3.3,12.2l2.2,8.2c0.1,0.4,0.2,0.9,0.2,1.4V127c0,2.9-2.3,5.2-5.2,5.2h-10.8H106.5H95.6
	c-2.7,0-4.8-1.9-5.1-4.5c-2.5-0.6-5-1.4-7.4-2.2v8.8c0,0.3,0,0.5,0.1,0.8c0,0.2-0.1,0.4-0.1,0.7v21.4c0,2,1.7,3.7,3.7,3.7h19.7
	c2,0,3.7-1.7,3.7-3.7v-17.7h99v17.7c0,2,1.7,3.7,3.7,3.7h19.7c2,0,3.7-1.7,3.7-3.7v-21.4c0-0.2,0-0.5-0.1-0.7c0-0.3,0.1-0.5,0.1-0.8
	V92.9c0-0.3,0-0.7-0.1-1l-1.3-4.7h11.5c2,0,3.7-1.7,3.7-3.7V71.4C250,69.3,248.3,67.7,246.3,67.7z M102.8,153.4H90.5v-14h12.3V153.4
	z M228.8,153.4h-12.3v-14h12.3V153.4z M242.6,79.9h-9.8l-1.3-4.8h11.1V79.9z M101.3,40.2c-2.3,0-4.4,1.6-5,3.8l-6.4,23.7H73
	c-2,0-3.7,1.7-3.7,3.7v12.2c0,2,1.7,3.7,3.7,3.7h11.5l-1.2,4.5c-0.1,0.4-0.2,0.9-0.2,1.4v12.2c2.3,1.3,4.8,2.4,7.3,3.2V94.1
	c0-0.5,0.1-0.9,0.2-1.4l11.3-41.3c0.6-2.2,2.7-3.8,5-3.8h41.8c-1-2.6-2.3-5.1-3.7-7.4C145,40.2,101.3,40.2,101.3,40.2z M86.6,79.9
	h-9.8v-4.8h11.1L86.6,79.9z M137.9,126.8h43.6c1.6,0,3-1.3,3-3v-4.2c-0.1-1.6-1.4-3-3-3h-37.3c-2.9,2.2-6.1,4.1-9.3,5.8v1.4
	C134.9,125.4,136.2,126.8,137.9,126.8z M105.6,125.8C72.2,125.8,45,98.6,45,65.2S72.2,4.6,105.6,4.6s60.6,27.2,60.6,60.6
	S139,125.8,105.6,125.8z M105.6,14.6C77.7,14.6,55,37.3,55,65.2s22.7,50.6,50.6,50.6s50.6-22.7,50.6-50.6S133.5,14.6,105.6,14.6z
	 M9.2,165.4c-1.3,0-2.6-0.5-3.5-1.5c-2-2-1.9-5.1,0-7.1L61,101.7c2-1.9,5.1-1.9,7.1,0c2,2,1.9,5.1,0,7.1L12.8,164
	C11.8,164.9,10.5,165.4,9.2,165.4z"/>
</svg>
