<?xml version="1.0" encoding="utf-8"?>
<!-- Generator: Adobe Illustrator 23.0.3, SVG Export Plug-In . SVG Version: 6.00 Build 0)  -->
<svg version="1.1" id="Layer_1" xmlns="http://www.w3.org/2000/svg" xmlns:xlink="http://www.w3.org/1999/xlink" x="0px" y="0px"
	 viewBox="0 0 250 250" style="enable-background:new 0 0 250 250;" xml:space="preserve">
<style type="text/css">
	.st0{fill:#B5B5B6;}
</style>
<g>
	<path class="st0" d="M197.8,20.1H95.1c-3.5,0-6.4,2.9-6.4,6.4s2.9,6.4,6.4,6.4h102.7c3.5,0,6.4-2.9,6.4-6.4S201.3,20.1,197.8,20.1z
		"/>
	<path class="st0" d="M131.1,219.9H65.7c-2.2,0-3.9,1.8-3.9,3.9c0,2.2,1.8,3.9,3.9,3.9h65.4c2.2,0,3.9-1.8,3.9-3.9
		C135,221.7,133.2,219.9,131.1,219.9z"/>
	<path class="st0" d="M243.2,7.3c-4.7-4.7-11-7.3-17.8-7.3H67.5C53.9,0,42.8,10.7,42.8,23.9v102.2H24.7C11.1,126.1,0,136.8,0,150v76
		c0,13.2,11.1,24,24.7,24h200.6c13.6,0,24.7-10.7,24.7-23.9V23.9C250,17.7,247.6,11.8,243.2,7.3z M239.3,56.6v169.6
		c0,7.2-6.2,13.1-13.9,13.1h-176c2.8-4,4.3-8.8,4.2-13.8V56.6H239.3z M42.7,225.7c0.1,3.3-1.2,6.6-3.7,9.1c-2.5,2.6-6.2,4.2-9.9,4.4
		h-4.4c-7.7,0-13.9-5.9-13.9-13.1v-76c0-7.2,6.2-13.1,13.9-13.1h18v88.5L42.7,225.7z M239.3,23.9v21.9H53.7V23.9
		c0-7.2,6.2-13.1,13.9-13.1h157.8C233,10.8,239.3,16.7,239.3,23.9z"/>
	<path class="st0" d="M157.9,77h65.4c2.9,0,5.4-2.5,5.4-5.4s-2.5-5.4-5.4-5.4h-65.4c-2.9,0-5.4,2.5-5.4,5.4
		C152.5,74.6,155,77,157.9,77z"/>
	<path class="st0" d="M223.3,96.4h-65.4c-2.2,0-3.9,1.8-3.9,3.9c0,2.2,1.8,3.9,3.9,3.9h65.4c2.2,0,3.9-1.8,3.9-3.9
		C227.3,98.2,225.5,96.4,223.3,96.4z"/>
	<path class="st0" d="M157.9,89.9h32.7c2.2,0,3.9-1.8,3.9-3.9s-1.8-3.9-3.9-3.9h-32.7c-2.2,0-3.9,1.8-3.9,3.9S155.8,89.9,157.9,89.9
		z"/>
	<path class="st0" d="M223.3,113.7h-65.4c-2.2,0-3.9,1.8-3.9,3.9s1.8,3.9,3.9,3.9h65.4c2.2,0,3.9-1.8,3.9-3.9
		S225.5,113.7,223.3,113.7z"/>
	<path class="st0" d="M223.3,130.8h-65.4c-2.2,0-3.9,1.8-3.9,3.9c0,2.2,1.8,3.9,3.9,3.9h65.4c2.2,0,3.9-1.8,3.9-3.9
		C227.3,132.6,225.5,130.8,223.3,130.8z"/>
	<path class="st0" d="M65.7,166.6h65.4c3.3,0,5.9-2.7,5.9-5.9c0-3.3-2.7-5.9-5.9-5.9H65.7c-3.3,0-5.9,2.7-5.9,5.9
		C59.8,164,62.4,166.6,65.7,166.6z"/>
	<path class="st0" d="M65.7,179.1h34.8c2.2,0,3.9-1.8,3.9-3.9c0-2.2-1.8-3.9-3.9-3.9H65.7c-2.2,0-3.9,1.8-3.9,3.9
		C61.7,177.3,63.5,179.1,65.7,179.1z"/>
	<path class="st0" d="M131.1,185.6H65.7c-2.2,0-3.9,1.8-3.9,3.9c0,2.2,1.8,3.9,3.9,3.9h65.4c2.2,0,3.9-1.8,3.9-3.9
		C135,187.3,133.2,185.6,131.1,185.6z"/>
	<path class="st0" d="M131.1,202.7H65.7c-2.2,0-3.9,1.8-3.9,3.9c0,2.2,1.8,3.9,3.9,3.9h65.4c2.2,0,3.9-1.8,3.9-3.9
		C135,204.5,133.2,202.7,131.1,202.7z"/>
	<path class="st0" d="M65.7,140.2h65.4c2.9,0,5.4-2.5,5.4-5.4V71.6c0-2.9-2.5-5.4-5.4-5.4H65.7c-2.9,0-5.4,2.5-5.4,5.4v63.1
		C60.3,137.8,62.6,140.2,65.7,140.2z M125.6,77v52.3H71.1V77H125.6z"/>
	<path class="st0" d="M157.9,229.3h65.4c2.9,0,5.4-2.5,5.4-5.4v-63.1c0-2.9-2.5-5.4-5.4-5.4h-65.4c-2.9,0-5.4,2.5-5.4,5.4v63.1
		C152.5,226.8,155,229.3,157.9,229.3z M217.9,166.2v52.3h-54.5v-52.3H217.9z"/>
</g>
</svg>
